<svg xmlns="http://www.w3.org/2000/svg" viewBox="0 0 1589.47 464.6"><defs><style>.cls-1{fill:#231f20;}.cls-2{fill:#fff;}</style></defs><title>Asset 1</title><g id="Layer_2" data-name="Layer 2"><g id="horizontal_2" data-name="horizontal 2"><path class="cls-1" d="M673,143.06q-8.76-18.26-21.73-29.58A82.64,82.64,0,0,0,623,97.05a90.38,90.38,0,0,0-28.48-5.12h-130V360.36H519.6V293.17h69.75c1.46,0,4.31-.12,8.58-.37a71.14,71.14,0,0,0,15.34-2.92,111.67,111.67,0,0,0,19.18-7.68,76.11,76.11,0,0,0,19.71-14.59q29.58-28.49,29.59-80Q681.75,161.32,673,143.06ZM622,214.64c-2.81,6.58-6.08,11.64-9.87,15.16a26.08,26.08,0,0,1-11.87,6.76,48.48,48.48,0,0,1-9.85,1.46H519.6V147.46h74.5a37,37,0,0,1,10,1.62,28.88,28.88,0,0,1,10.59,5.85A31.42,31.42,0,0,1,623,167q3.28,7.86,3.29,20.63Q626.24,204.8,622,214.64Z"/><path class="cls-1" d="M774.31,347.07l-47.66,47.66-26.82-26.82,47.66-47.66a138.87,138.87,0,0,0,26.82,26.82Z"/><path class="cls-1" d="M991.66,173.92A138.64,138.64,0,0,0,963,131.38a134.81,134.81,0,0,0-42.36-28.85,133,133,0,0,0-104.08,0,134.86,134.86,0,0,0-42.37,28.85,138.82,138.82,0,0,0-28.67,42.54,133.21,133.21,0,0,0,0,104.1,138.54,138.54,0,0,0,28.67,42.53,134.72,134.72,0,0,0,42.37,28.86,133.16,133.16,0,0,0,104.08,0A134.67,134.67,0,0,0,963,320.55,138.36,138.36,0,0,0,991.66,278a133.09,133.09,0,0,0,0-104.1ZM940.9,256.64a80.45,80.45,0,0,1-42,42,74.93,74.93,0,0,1-30.29,6.2,75.9,75.9,0,0,1-30.69-6.2,78.51,78.51,0,0,1-24.84-17,82.62,82.62,0,0,1-16.8-25,79,79,0,0,1,0-61.36,82.52,82.52,0,0,1,16.8-25,78.35,78.35,0,0,1,24.84-17,75.91,75.91,0,0,1,30.69-6.21,74.94,74.94,0,0,1,30.29,6.21,80.51,80.51,0,0,1,42,42,78.89,78.89,0,0,1,0,61.36Z"/><path class="cls-1" d="M1147.57,362.92a110.07,110.07,0,0,1-38.34-6.58,111.38,111.38,0,0,1-31.59-17.53,81.93,81.93,0,0,1-21.55-25.74,65.61,65.61,0,0,1-7.85-31.23h55.51q0,3.29,3.1,7.67a36.16,36.16,0,0,0,8.77,8.4,53.14,53.14,0,0,0,13.69,6.76,56.65,56.65,0,0,0,18.26,2.74q16.44,0,25.93-3.84t14.25-8.4a29.67,29.67,0,0,0,7.3-12.23,69.89,69.89,0,0,0-.55-8.77,15.76,15.76,0,0,0-3.47-8q-5.12-6.21-17.53-9.68T1142.82,253a111.71,111.71,0,0,1-25-2.56,100.91,100.91,0,0,1-19.54-6.39,75.22,75.22,0,0,1-14.61-8.58,64.79,64.79,0,0,1-10.22-9.49A70.11,70.11,0,0,1,1061,207.52a89.85,89.85,0,0,1-6.21-18.26,84.4,84.4,0,0,1-2-15q-.18-6.39-.18-9.31a72,72,0,0,1,.73-8.22,65.69,65.69,0,0,1,3.1-12.6,102.25,102.25,0,0,1,6.58-14.79,65.12,65.12,0,0,1,11.5-15.16q26.65-26.65,74.14-26.66,46.74,0,73,27.39A81.19,81.19,0,0,1,1236,134.66a93.82,93.82,0,0,1,7.31,19,84.29,84.29,0,0,1,2.56,15c.23,4.14.36,6.7.36,7.67l-55.51-1.83v.73a41,41,0,0,0-1.46-10,25.5,25.5,0,0,0-5.85-10.59q-4.38-4.94-12.78-8.22t-21.91-3.29q-13.15,0-21,2.56t-12.05,6.21a19,19,0,0,0-5.66,7.67,20.09,20.09,0,0,0-1.46,6.57v2.56l-.37.36a36.91,36.91,0,0,0,.73,7.31q.73,2.92,1.83,6.39a15.57,15.57,0,0,0,4,6.39q8.4,8.4,28.12,8.4,51.86,0,80,22.46t28.12,63.36q0,11.7-5.66,25.57a77.81,77.81,0,0,1-17.9,25.93q-12.24,12-31.95,20.08T1147.57,362.92Z"/><polygon class="cls-1" points="1384.96 360.36 1327.98 360.36 1327.98 91.94 1387.15 91.94 1459.46 275.27 1530.67 91.94 1589.47 91.94 1589.47 360.36 1532.5 360.36 1532.5 251.53 1487.58 360.36 1431.34 360.36 1384.96 249.71 1384.96 360.36"/><path class="cls-1" d="M375.28,5.92c-9.47-9.46-27.63-7.64-58.88,5.9a506.55,506.55,0,0,0-49,25.08c-2.64-1.25-5.28-2.43-7.9-3.52a175.86,175.86,0,0,0-135.12.07c-2.61,1.09-5.22,2.25-7.81,3.48-11.67-6.72-30.46-17-49-25.08C36.3-1.72,18.12-3.55,8.65,5.92,2.12,12.45-3.67,27.76,2.87,91.81c3.65,35.75,9.86,73.78,13.36,93.95-.2,3.56-.3,6.9-.3,10.18,0,25.12,6.14,54.11,18.25,86.16a456.26,456.26,0,0,0,43.46,85.2L79,369.37q-5.13,2.29-9.88,4.87a114.22,114.22,0,0,0-21.72,15.1A21.36,21.36,0,0,0,45,418.81a30.68,30.68,0,0,0,17.16,10A21.43,21.43,0,0,0,65.19,435l.44.6a30.76,30.76,0,0,0,12.45,9,21,21,0,0,0,3.61,7.62c3.06,4.09,10.8,10.36,19.6,10.87.39,0,.8,0,1.24,0a21.21,21.21,0,0,0,14.84-6,60.09,60.09,0,0,1,10.4-7.74A89.92,89.92,0,0,1,142,442.6c18.13,14.6,34.92,22,50,22,14.59,0,31.12-7.49,49.19-22.29a90.58,90.58,0,0,1,15,7.14,60.09,60.09,0,0,1,10.4,7.74,21.22,21.22,0,0,0,14.83,6c.44,0,.85,0,1.25,0,8.81-.51,16.53-6.76,19.56-10.82a21.53,21.53,0,0,0,3.65-7.67,30.83,30.83,0,0,0,12.44-9l.45-.6a21.69,21.69,0,0,0,3.08-6.23,30.7,30.7,0,0,0,17.16-10,21.35,21.35,0,0,0-2.44-29.45,113.84,113.84,0,0,0-21.73-15.11c-3.41-1.85-7-3.61-10.72-5.25.36-.54.72-1.08,1.07-1.62A462.66,462.66,0,0,0,349.3,282.2C361.7,250.06,368,221,368,195.94c0-3.3-.1-6.71-.3-10.16,3.5-20.16,9.71-58.19,13.36-93.95C387.59,27.76,381.8,12.45,375.28,5.92Z"/><line class="cls-1" x1="192.02" y1="379.12" x2="192.02" y2="334.13"/><path class="cls-2" d="M332,412.91c-2.08,2.57-7.58,6.5-12.8,6.78l-.67,0a12.06,12.06,0,0,1-5.62-1.4,12,12,0,0,1-1.48,11.25l-.26.34c-2,2.66-7.52,6.73-12.79,7h-.64l-.59,0a12,12,0,0,1-2.13,9.78c-2,2.68-7.4,6.81-12.61,7.1l-.69,0a11.89,11.89,0,0,1-8.34-3.37,68.83,68.83,0,0,0-12.07-9,108.29,108.29,0,0,0-28.51-11.66l.14-2.45c16.16-13.7,33.4-33.43,49.59-56.37a149.89,149.89,0,0,1,28.13,11.55,103.9,103.9,0,0,1,20,13.88A12,12,0,0,1,332,412.91Z"/><path class="cls-2" d="M356.33,195.28s30.77-165,12.31-183.5c-16.71-16.71-106.1,38.11-106.1,38.11l93.79,145.39"/><path class="cls-1" d="M27.6,196.06S-3.18,31,15.28,12.56C32-4.15,121.39,50.67,121.39,50.67L27.6,196.06"/><path class="cls-2" d="M358.61,195.16c0,24-6.08,51.83-18.07,82.89a453.19,453.19,0,0,1-43.23,83.41c-29.14,44.5-71.69,92-104.36,93a1,1,0,0,1-1-1v-6.62c51.9,0,159-154.9,159-251.67,0-90.21-73.26-159-159-159v-4a3.59,3.59,0,0,1,3.67-3.6,166.42,166.42,0,0,1,163,166.59Z"/><path class="cls-1" d="M351,195.94c0,76.73-67.36,190-121.13,233.64-14,11.39-27.16,18-37.91,18V36.91C277.74,36.91,351,105.73,351,195.94Z"/><path class="cls-2" d="M192,36.14V446.83c-10.78,0-23.46-6-36.9-16.36l-1.58-1.23c-17.09-13.57-35.31-34.06-52.27-58.17C64,318.24,32.93,248,32.93,195.17,32.93,105.32,106.19,36.14,192,36.14Z"/><path class="cls-1" d="M323.82,403.37a94.78,94.78,0,0,0-18.22-12.64c-22.43-12.18-52.14-18.89-83.65-18.89h-2.34v9.78H222c29.91,0,58,6.29,79,17.7a86.56,86.56,0,0,1,15.26,10.36,2.6,2.6,0,0,0,1.75.64h.17c1.8-.1,5.05-2.13,6-3.3A2.65,2.65,0,0,0,323.82,403.37Z"/><path class="cls-1" d="M285.49,408c-21.4-12.19-49.73-18.91-79.77-18.91h-2.35v9.78h2.35c28.46,0,55.14,6.28,75.14,17.68a82.69,82.69,0,0,1,14.51,10.33,2.55,2.55,0,0,0,1.79.69h.16c1.75-.09,4.92-2.16,5.84-3.35h0a2.67,2.67,0,0,0-.32-3.58A90.56,90.56,0,0,0,285.49,408Z"/><path class="cls-1" d="M270.16,424.86c-20.35-12.21-47.29-18.93-75.85-18.93H192v9.77h2.35c27,0,52.29,6.27,71.25,17.66a78.53,78.53,0,0,1,13.76,10.32,2.53,2.53,0,0,0,1.82.72h.17c1.69-.09,4.73-2.16,5.63-3.37a2.67,2.67,0,0,0-.28-3.51A86.23,86.23,0,0,0,270.16,424.86Z"/><path class="cls-2" d="M60.11,403.37a95,95,0,0,1,18.21-12.64c22.44-12.18,52.15-18.89,83.65-18.89h2.34v9.78H162c-29.9,0-57.95,6.29-79,17.7a86.66,86.66,0,0,0-15.27,10.36,2.58,2.58,0,0,1-1.75.64h-.16c-1.8-.1-5.06-2.13-6-3.3A2.63,2.63,0,0,1,60.11,403.37Z"/><path class="cls-2" d="M98.44,408c21.39-12.19,49.72-18.91,79.77-18.91h2.34v9.78h-2.34c-28.46,0-55.15,6.28-75.15,17.68a83,83,0,0,0-14.5,10.33,2.58,2.58,0,0,1-1.8.69H86.6c-1.75-.09-4.92-2.16-5.83-3.35h0a2.66,2.66,0,0,1,.32-3.58A90.56,90.56,0,0,1,98.44,408Z"/><path class="cls-2" d="M113.77,424.86c20.34-12.21,47.28-18.93,75.85-18.93H192v9.77h-2.34c-27,0-52.29,6.27-71.26,17.66a78.82,78.82,0,0,0-13.75,10.32,2.57,2.57,0,0,1-1.83.72h-.16c-1.7-.09-4.73-2.16-5.64-3.37a2.7,2.7,0,0,1,.28-3.51A86.31,86.31,0,0,1,113.77,424.86Z"/><path class="cls-1" d="M350.2,114.76c-1.14,10.12-2.69,20-4.09,29.2a1,1,0,0,1-1.59.72h0a1,1,0,0,1-.43-.54,159.43,159.43,0,0,0-45.55-68,1,1,0,0,1,.2-1.7c5.55-3,10.23-5.45,12.64-6.65C335.12,56,348,52.19,354.42,51a1,1,0,0,1,1.22.89C356.72,59.52,356.09,62.4,350.2,114.76Z"/><path class="cls-2" d="M85.44,75.44A159.92,159.92,0,0,0,39.9,143.31a1.08,1.08,0,0,1-.45.56h0a1.08,1.08,0,0,1-1.64-.75c-1.4-9.17-3-19-4.09-29.14-5.88-52.27-6.52-55.22-5.44-62.82a1.08,1.08,0,0,1,1.27-.92c6.41,1.19,19.3,5,43,16.76,2.42,1.2,7.11,3.69,12.68,6.68A1.08,1.08,0,0,1,85.44,75.44Z"/><path class="cls-1" d="M192,415.21v33.45h-.06c-10.78,0-23.47-6-36.9-16.36,7.51-10.61,20.83-17,36.9-17.09Z"/><path class="cls-2" d="M229.81,430.63c-14,11.37-27.11,18-37.85,18V415.21h.15C208.16,415.21,222.2,420.14,229.81,430.63Z"/><path class="cls-1" d="M192,35.32l0,193.27s-1.23-.42-1.24-.45c-11.6-38.95-47-63.36-91.42-63.36a95.58,95.58,0,0,0-68,28.34A160.85,160.85,0,0,1,192,35.32Z"/><path class="cls-2" d="M352.71,192.86a95.88,95.88,0,0,0-160.75,43V35.05A161.11,161.11,0,0,1,297.41,74.37a159.38,159.38,0,0,1,46.8,69.34A161.32,161.32,0,0,1,352.71,192.86Z"/><circle class="cls-1" cx="147.8" cy="275.47" r="18.26"/><circle class="cls-2" cx="236.13" cy="274.69" r="18.26"/></g></g></svg>